<svg xmlns="http://www.w3.org/2000/svg" viewBox="0 0 1080 1282" role="img" aria-labelledby="t d"><title id="t">Composition conceptuelle d'un repas équilibré</title><desc id="d">Bol ivoire composé de grains, légumes et feuilles sur une table sombre.</desc><rect width="1080" height="1282" fill="#161512"/><path d="M0 0h470L0 720z" fill="#B9422E"/><rect x="740" y="0" width="340" height="1282" fill="#201e19"/><circle cx="535" cy="650" r="390" fill="#F2EEE6"/><circle cx="535" cy="650" r="320" fill="#D8CDBB"/><g><path d="M300 480c110-115 210-90 255 30-115 90-210 80-255-30z" fill="#6B7748"/><path d="M455 425c120-72 225-15 230 120-135 42-225 0-230-120z" fill="#89934F"/><path d="M610 560c125-70 230-10 225 128-140 38-230-10-225-128z" fill="#B9422E"/><circle cx="420" cy="700" r="86" fill="#C99B59"/><circle cx="625" cy="760" r="112" fill="#E8FF72"/><path d="M300 835c120-105 250-48 265 105-155 55-260 20-265-105z" fill="#56663F"/><g fill="#8C6A46"><circle cx="500" cy="590" r="12"/><circle cx="540" cy="610" r="10"/><circle cx="575" cy="575" r="14"/><circle cx="590" cy="640" r="9"/><circle cx="510" cy="655" r="13"/></g></g><path d="M120 1120h840" stroke="#F2EEE6" stroke-width="4"/><path d="M120 1152h400" stroke="#E8FF72" stroke-width="12"/></svg>