<svg xmlns="http://www.w3.org/2000/svg" viewBox="0 0 1600 900" role="img" aria-labelledby="t d"><title id="t">Composition conceptuelle d'un studio de force</title><desc id="d">Structures noires, plateau rouge oxyde et lignes de mesure ivoire.</desc><defs><linearGradient id="bg" x2="1" y2="1"><stop stop-color="#080807"/><stop offset=".58" stop-color="#171612"/><stop offset="1" stop-color="#2b1713"/></linearGradient><filter id="grain"><feTurbulence baseFrequency=".7" numOctaves="2" seed="17" type="fractalNoise"/><feColorMatrix values="0 0 0 0 1 0 0 0 0 1 0 0 0 0 1 0 0 0 .055 0"/></filter></defs><rect width="1600" height="900" fill="url(#bg)"/><path d="M1115 0h485v900H910z" fill="#B9422E"/><path d="M0 720 890 530l710 160v210H0z" fill="#0d0d0b"/><g opacity=".2" stroke="#F2EEE6"><path d="M0 720h1600M0 780h1600M0 840h1600"/><path d="M240 900 950 540M600 900l520-330M960 900l290-300M1320 900l80-260"/></g><g fill="none" stroke="#F2EEE6" stroke-width="18"><path d="M655 166v488M1075 166v488M655 180h420"/><path d="M730 432h270M782 432v186M948 432v186"/></g><g fill="#11110F" stroke="#F2EEE6" stroke-width="10"><circle cx="620" cy="294" r="80"/><circle cx="1110" cy="294" r="80"/><path d="M620 274h490v40H620z"/></g><g fill="#B9422E" stroke="#11110F" stroke-width="12"><circle cx="620" cy="294" r="42"/><circle cx="1110" cy="294" r="42"/></g><path d="M128 156h352" stroke="#E8FF72" stroke-width="8"/><path d="M128 180h150" stroke="#F2EEE6" stroke-width="3" opacity=".7"/><g fill="#F2EEE6" opacity=".75"><circle cx="128" cy="156" r="8"/><circle cx="480" cy="156" r="8"/></g><rect width="1600" height="900" filter="url(#grain)" opacity=".23"/></svg>