<svg xmlns="http://www.w3.org/2000/svg" viewBox="0 0 1080 1080" role="img" aria-labelledby="t d"><title id="t">Étude conceptuelle de mouvement</title><desc id="d">Kettlebell noir et corde d'entraînement sur fond ivoire.</desc><rect width="1080" height="1080" fill="#E2DDD3"/><path d="M0 0h400L0 520z" fill="#B9422E"/><g fill="#11110F"><path d="M348 470c0-150 82-250 192-250s192 100 192 250h-92c0-90-40-150-100-150s-100 60-100 150z"/><path d="M270 448h540l78 420c14 76-44 146-122 146H314c-78 0-136-70-122-146z"/></g><path d="M812 174c-250 124 124 260-78 402S474 782 710 944" fill="none" stroke="#F2EEE6" stroke-width="30"/><path d="M812 174c-250 124 124 260-78 402S474 782 710 944" fill="none" stroke="#11110F" stroke-width="5" stroke-dasharray="14 18"/></svg>